<svg width="158" height="37" viewBox="0 0 158 37" fill="none" xmlns="http://www.w3.org/2000/svg">
<path d="M30.2736 31.3799C33.6314 31.1277 35.9962 30.8935 37.3682 30.6773C39.029 30.4612 40.5995 30.3531 42.0798 30.3531C43.5601 30.3531 44.9862 30.7494 46.3582 31.542C47.7302 32.2985 48.4162 33.001 48.4162 33.6495C48.4162 34.4781 47.5858 34.8924 45.9249 34.8924C45.3834 34.8924 44.6252 34.8204 43.6504 34.6763C42.6755 34.4961 40.762 34.334 37.9097 34.1899C35.0575 34.0458 31.8261 33.9738 28.2157 33.9738C24.6052 33.9738 20.7782 34.2259 16.7344 34.7303C12.6907 35.1987 9.71212 35.685 7.79858 36.1894C5.88504 36.7298 4.56722 37 3.84513 37C3.15915 37 2.34679 36.6577 1.40808 35.9732C0.469359 35.3248 0 34.8384 0 34.5142C0 34.1539 0.342993 33.9738 1.02898 33.9738L2.11211 34.0278C3.05083 34.0278 7.1487 33.6135 14.4057 32.7849C15.4527 30.0829 16.8969 25.6156 18.7382 19.383C15.6333 20.1396 13.7197 20.5179 12.9976 20.5179C12.3116 20.5179 11.5715 20.2657 10.7772 19.7613C10.019 19.2569 9.63991 18.9147 9.63991 18.7346C9.63991 18.5184 9.74822 18.3923 9.96485 18.3563C10.1815 18.3202 10.7772 18.3022 11.752 18.3022C12.7268 18.3022 15.2361 17.978 19.2798 17.3295C20.6157 12.4659 21.2836 9.02541 21.2836 7.00793C21.2836 6.4315 21.2295 5.90911 21.1211 5.44077C19.0632 5.69296 17.5648 5.81905 16.6261 5.81905C15.6874 5.81905 14.7848 5.58488 13.9183 5.11653C13.0518 4.64819 12.6185 4.26991 12.6185 3.9817C12.6185 3.69349 13.1601 3.54938 14.2432 3.54938C15.3264 3.54938 17.2941 3.33322 20.1463 2.9009C22.9986 2.43256 25.6342 1.87415 28.0532 1.22567C30.4722 0.541167 32.2594 0.198914 33.4147 0.198914C34.5701 0.198914 35.581 0.433085 36.4475 0.90143C37.314 1.36978 37.7473 1.82011 37.7473 2.25243C37.7473 2.68474 37.3682 3.02699 36.61 3.27918C35.8518 3.49534 31.3748 4.10779 23.1791 5.11653C24.8038 6.05322 25.6162 6.84581 25.6162 7.49428C25.6162 7.71044 25.4537 8.10673 25.1287 8.68316C24.8399 9.22356 24.4969 10.1062 24.0998 11.3311C23.7026 12.556 23.143 14.3934 22.4209 16.8432C26.6812 16.1226 29.0461 15.5642 29.5154 15.1679C30.0209 14.7716 30.5986 14.5735 31.2485 14.5735C31.9344 14.5735 32.9273 14.8977 34.2271 15.5462C35.5268 16.1587 36.1767 16.7351 36.1767 17.2755C36.1767 17.5637 35.8879 17.978 35.3102 18.5184C34.7687 19.0228 34.2993 19.7073 33.9021 20.5719C33.505 21.4365 32.9634 23.0757 32.2774 25.4895C31.6276 27.9033 30.9596 29.8667 30.2736 31.3799ZM27.3492 31.596C27.8546 30.0829 28.4504 27.6511 29.1363 24.3006C29.8584 20.9142 30.2195 18.9327 30.2195 18.3563C30.2195 17.996 30.0751 17.8159 29.7862 17.8159C28.7392 17.8159 26.0675 18.1581 21.771 18.8426C19.5325 25.5436 17.9801 30.0829 17.1135 32.4606C21.1211 32.0644 24.533 31.7761 27.3492 31.596Z" fill="#E2C8AF"/>
<path d="M79.7399 14.9045C78.8158 14.7064 78.3538 14.3268 78.3538 13.7656C78.3538 13.5015 78.4693 13.2704 78.7003 13.0724C78.9313 12.8743 79.2283 12.7753 79.5914 12.7753C79.8554 12.7753 80.3174 12.8248 80.9775 12.9238C81.6376 13.0228 82.0831 13.0724 82.3141 13.0724C82.5452 13.0724 82.9412 13.0228 83.5023 12.9238C84.0633 12.8248 84.4593 12.7753 84.6904 12.7753C85.4824 12.7753 85.8785 13.1054 85.8785 13.7656C85.8785 14.1617 85.3174 14.5413 84.1953 14.9045C83.4032 15.2016 82.6937 16.1424 82.0666 17.7269L78.1557 27.6302C78.0567 27.8613 77.7597 28.6866 77.2646 30.106C76.7696 31.5255 76.3406 32.5984 75.9775 33.3246C75.6145 34.0509 75.301 34.414 75.0369 34.414C74.6739 34.414 74.2614 33.7538 73.7993 32.4333L69.9379 22.2824L67.8092 27.6302C67.7102 27.8613 67.4132 28.6866 66.9181 30.106C66.4231 31.5255 65.9941 32.5984 65.631 33.3246C65.268 34.0509 64.9545 34.414 64.6904 34.414C64.3274 34.414 63.9149 33.7538 63.4528 32.4333L57.9578 18.024C57.2317 16.1424 56.5881 15.1025 56.0271 14.9045C54.938 14.5413 54.3934 14.1617 54.3934 13.7656C54.3934 13.1054 54.7895 12.7753 55.5815 12.7753C55.8126 12.7753 56.3241 12.8248 57.1162 12.9238C57.9413 13.0228 58.4858 13.0724 58.7499 13.0724C58.9809 13.0724 59.5749 13.0228 60.532 12.9238C61.4891 12.8248 62.0832 12.7753 62.3142 12.7753C62.6772 12.7753 62.9743 12.8743 63.2053 13.0724C63.4363 13.2704 63.5518 13.5015 63.5518 13.7656C63.5518 14.2277 62.9908 14.6404 61.8687 15.0035C61.7366 15.0365 61.6376 15.1851 61.5716 15.4492C61.5056 15.6802 61.5221 15.9278 61.6211 16.1919L65.136 25.2534C65.664 26.5739 65.9776 27.2341 66.0766 27.2341C66.1756 27.2341 66.2746 27.1185 66.3736 26.8875C66.5056 26.6564 66.6211 26.3428 66.7201 25.9467C66.8521 25.5505 66.9346 25.3194 66.9676 25.2534L68.9973 19.8066L68.3043 18.024C67.5782 16.1424 66.9346 15.1025 66.3736 14.9045C65.2845 14.5413 64.7399 14.1617 64.7399 13.7656C64.7399 13.1054 65.136 12.7753 65.928 12.7753C66.1921 12.7753 66.7201 12.8248 67.5122 12.9238C68.3043 13.0228 68.8323 13.0724 69.0964 13.0724C69.3604 13.0724 70.0534 13.0228 71.1756 12.9238C72.2977 12.8248 72.9907 12.7753 73.2548 12.7753C73.6178 12.7753 73.9148 12.8743 74.1458 13.0724C74.3769 13.2704 74.4924 13.5015 74.4924 13.7656C74.4924 14.2277 74.0138 14.6899 73.0567 15.1521C72.1987 15.5152 71.9511 16.1589 72.3142 17.0832L75.4825 25.2534C75.9775 26.5078 76.2911 27.1351 76.4231 27.1351C76.5221 27.1351 76.6211 27.036 76.7201 26.838C76.8521 26.6069 76.9676 26.2933 77.0666 25.8971C77.1986 25.501 77.2811 25.2864 77.3142 25.2534L80.0864 17.8259C80.4165 17.0007 80.5815 16.3239 80.5815 15.7958C80.5815 15.5647 80.4825 15.3666 80.2844 15.2016C80.0864 15.0365 79.9049 14.9375 79.7399 14.9045Z" fill="#616060"/>
<path d="M100.726 17.6774C100.726 16.39 99.9509 15.6307 98.3997 15.3996C97.6406 15.2676 97.2611 14.954 97.2611 14.4588C97.2611 14.1947 97.4096 13.9472 97.7066 13.7161C98.0037 13.452 98.3337 13.2869 98.6967 13.2209C99.1258 13.1549 99.8023 13.0559 100.726 12.9238C101.651 12.7918 102.426 12.6762 103.053 12.5772C103.713 12.4782 104.109 12.4286 104.241 12.4286C104.505 12.4286 104.67 12.5277 104.736 12.7257C104.802 12.8908 104.835 13.2374 104.835 13.7656V30.3041C104.835 30.7333 105.099 30.9478 105.627 30.9478C105.858 30.9478 106.238 30.8983 106.766 30.7993C107.294 30.7002 107.608 30.6507 107.707 30.6507C107.839 30.6507 107.971 30.7498 108.103 30.9478C108.268 31.1129 108.35 31.2779 108.35 31.443C108.35 31.9712 108.053 32.3838 107.459 32.6809C106.997 32.912 106.023 33.2421 104.538 33.6712C103.053 34.1004 102.129 34.3149 101.766 34.3149C101.403 34.3149 101.172 34.0839 101.073 33.6217C101.007 33.4567 100.941 33.1596 100.875 32.7304C100.842 32.2683 100.809 31.9382 100.776 31.7401C100.611 31.344 100.495 31.1624 100.429 31.1954C100.396 31.1954 100.182 31.3605 99.7858 31.6906C98.6967 32.5489 97.6736 33.1431 96.7165 33.4732C95.7925 33.7703 94.5878 33.9188 93.1027 33.9188C91.7166 33.9188 90.545 33.2916 89.5879 32.0372C88.6638 30.7828 88.2017 29.3963 88.2017 27.8778V18.0735C88.2017 16.7531 87.7562 15.9278 86.8651 15.5977C86.172 15.3336 85.8255 14.954 85.8255 14.4588C85.8255 13.8976 86.271 13.551 87.1621 13.419C87.7232 13.3199 88.3502 13.1879 89.0433 13.0228C89.7694 12.8578 90.3634 12.7257 90.8255 12.6267C91.2875 12.4947 91.5846 12.4286 91.7166 12.4286C91.9806 12.4286 92.1456 12.5277 92.2116 12.7257C92.2776 12.8908 92.3106 13.2374 92.3106 13.7656V26.2438C92.3106 27.4982 92.6242 28.5875 93.2512 29.5118C93.8783 30.4031 94.7199 30.8488 95.776 30.8488C97.1621 30.8488 98.3337 30.4857 99.2908 29.7594C100.248 29.0332 100.726 28.1254 100.726 27.036V17.6774Z" fill="#616060"/>
<path d="M124.372 29.6604L121.253 26.3923C119.867 24.9398 119.025 24.2136 118.728 24.2136C118.035 24.2136 117.688 24.5272 117.688 25.1544V28.373C117.688 29.0662 117.837 29.7264 118.134 30.3536C118.464 30.9478 118.943 31.344 119.57 31.542C120.659 31.8721 121.203 32.3013 121.203 32.8295C121.203 33.4897 120.642 33.8198 119.52 33.8198C119.124 33.8198 118.431 33.7703 117.441 33.6712C116.484 33.5722 115.89 33.5227 115.659 33.5227C115.329 33.5227 114.603 33.5722 113.48 33.6712C112.358 33.7703 111.616 33.8198 111.253 33.8198C110.098 33.8198 109.52 33.4897 109.52 32.8295C109.52 32.4003 110.246 31.9712 111.698 31.542C112.325 31.344 112.787 30.9478 113.084 30.3536C113.414 29.7264 113.58 29.0662 113.58 28.373V5.64488C113.58 5.21574 113.398 4.7866 113.035 4.35745C112.705 3.92831 112.243 3.5982 111.649 3.36712C110.89 3.10304 110.51 2.72341 110.51 2.22824C110.51 1.66706 110.989 1.32044 111.946 1.1884C112.507 1.08936 113.183 0.940815 113.976 0.74275C114.801 0.544682 115.494 0.379627 116.055 0.247582C116.616 0.0825275 116.962 0 117.094 0C117.358 0 117.523 0.0825275 117.589 0.247582C117.655 0.412639 117.688 0.775761 117.688 1.33695V21.8368C117.688 22.1999 117.754 22.4475 117.886 22.5795C118.018 22.6786 118.315 22.7281 118.778 22.7281C119.768 22.7281 120.84 22.0349 121.995 20.6484L124.817 17.2813C125.345 16.6541 125.609 16.1589 125.609 15.7958C125.609 15.5647 125.51 15.3666 125.312 15.2016C125.114 15.0365 124.933 14.9375 124.768 14.9045C123.976 14.7394 123.579 14.4588 123.579 14.0627C123.579 13.7986 123.695 13.5675 123.926 13.3695C124.157 13.1714 124.454 13.0724 124.817 13.0724H128.728C128.959 13.0724 129.454 13.0228 130.213 12.9238C130.972 12.8248 131.467 12.7753 131.698 12.7753C132.49 12.7753 132.886 13.1054 132.886 13.7656C132.886 14.1617 132.325 14.5413 131.203 14.9045C130.873 15.0365 130.312 15.3831 129.52 15.9443C128.761 16.5055 128.101 17.0997 127.54 17.7269L124.223 21.3911C123.662 21.9523 123.381 22.431 123.381 22.8271C123.381 22.9592 123.447 23.1407 123.579 23.3718C123.711 23.5699 123.91 23.8174 124.174 24.1145C124.471 24.4116 124.751 24.6922 125.015 24.9563C125.312 25.2204 125.692 25.5835 126.154 26.0457C126.616 26.4748 126.995 26.838 127.292 27.1351C129.768 29.6109 131.764 31.0799 133.282 31.542C134.702 31.9712 135.411 32.4003 135.411 32.8295C135.411 33.4897 134.85 33.8198 133.728 33.8198C133.332 33.8198 132.556 33.7703 131.401 33.6712C130.279 33.5722 129.603 33.5227 129.372 33.5227C129.041 33.5227 128.414 33.5722 127.49 33.6712C126.566 33.7703 125.923 33.8198 125.56 33.8198C124.405 33.8198 123.827 33.4897 123.827 32.8295C123.827 32.6314 124.124 32.3838 124.718 32.0867C125.345 31.7566 125.659 31.5585 125.659 31.4925C125.659 31.1954 125.23 30.5847 124.372 29.6604Z" fill="#616060"/>
<path d="M150.376 17.6774C150.376 16.39 149.601 15.6307 148.05 15.3996C147.29 15.2676 146.911 14.954 146.911 14.4588C146.911 14.1947 147.059 13.9472 147.356 13.7161C147.653 13.452 147.984 13.2869 148.347 13.2209C148.776 13.1549 149.452 13.0559 150.376 12.9238C151.3 12.7918 152.076 12.6762 152.703 12.5772C153.363 12.4782 153.759 12.4286 153.891 12.4286C154.155 12.4286 154.32 12.5277 154.386 12.7257C154.452 12.8908 154.485 13.2374 154.485 13.7656V30.3041C154.485 30.7333 154.749 30.9478 155.277 30.9478C155.508 30.9478 155.888 30.8983 156.416 30.7993C156.944 30.7002 157.257 30.6507 157.356 30.6507C157.488 30.6507 157.62 30.7498 157.752 30.9478C157.917 31.1129 158 31.2779 158 31.443C158 31.9712 157.703 32.3838 157.109 32.6809C156.647 32.912 155.673 33.2421 154.188 33.6712C152.703 34.1004 151.779 34.3149 151.416 34.3149C151.053 34.3149 150.822 34.0839 150.723 33.6217C150.657 33.4567 150.591 33.1596 150.525 32.7304C150.492 32.2683 150.459 31.9382 150.426 31.7401C150.261 31.344 150.145 31.1624 150.079 31.1954C150.046 31.1954 149.832 31.3605 149.436 31.6906C148.347 32.5489 147.323 33.1431 146.366 33.4732C145.442 33.7703 144.238 33.9188 142.753 33.9188C141.366 33.9188 140.195 33.2916 139.238 32.0372C138.314 30.7828 137.852 29.3963 137.852 27.8778V18.0735C137.852 16.7531 137.406 15.9278 136.515 15.5977C135.822 15.3336 135.475 14.954 135.475 14.4588C135.475 13.8976 135.921 13.551 136.812 13.419C137.373 13.3199 138 13.1879 138.693 13.0228C139.419 12.8578 140.013 12.7257 140.475 12.6267C140.937 12.4947 141.234 12.4286 141.366 12.4286C141.63 12.4286 141.795 12.5277 141.861 12.7257C141.927 12.8908 141.96 13.2374 141.96 13.7656V26.2438C141.96 27.4982 142.274 28.5875 142.901 29.5118C143.528 30.4031 144.37 30.8488 145.426 30.8488C146.812 30.8488 147.984 30.4857 148.941 29.7594C149.898 29.0332 150.376 28.1254 150.376 27.036V17.6774Z" fill="#616060"/>
</svg>
